<mxfile host="app.diagrams.net" modified="2020-07-29T13:28:25.283Z" agent="5.0 (Macintosh; Intel Mac OS X 10_15_5) AppleWebKit/537.36 (KHTML, like Gecko) Chrome/84.0.4147.89 Safari/537.36" etag="rl-yjRYghIv9B0_z3uzG" version="13.5.5" type="github">
  <diagram id="Ejo827IBjkCqRLOILhXb" name="Page-1">
    <mxGraphModel dx="746" dy="971" grid="1" gridSize="10" guides="1" tooltips="1" connect="1" arrows="1" fold="1" page="1" pageScale="1" pageWidth="827" pageHeight="1169" math="0" shadow="0">
      <root>
        <mxCell id="0" />
        <mxCell id="1" parent="0" />
        <mxCell id="kvd4B9m_ok-2z7ZeC6i3-1" value="" style="shape=table;html=1;whiteSpace=wrap;startSize=0;container=1;collapsible=0;childLayout=tableLayout;" vertex="1" parent="1">
          <mxGeometry x="80" y="480" width="600" height="40" as="geometry" />
        </mxCell>
        <mxCell id="kvd4B9m_ok-2z7ZeC6i3-2" value="" style="shape=partialRectangle;html=1;whiteSpace=wrap;collapsible=0;dropTarget=0;pointerEvents=0;fillColor=none;top=0;left=0;bottom=0;right=0;points=[[0,0.5],[1,0.5]];portConstraint=eastwest;" vertex="1" parent="kvd4B9m_ok-2z7ZeC6i3-1">
          <mxGeometry width="600" height="40" as="geometry" />
        </mxCell>
        <mxCell id="kvd4B9m_ok-2z7ZeC6i3-3" value="1" style="shape=partialRectangle;html=1;whiteSpace=wrap;connectable=0;overflow=hidden;fillColor=#dae8fc;top=0;left=0;bottom=0;right=0;strokeColor=#6c8ebf;" vertex="1" parent="kvd4B9m_ok-2z7ZeC6i3-2">
          <mxGeometry width="90" height="40" as="geometry" />
        </mxCell>
        <mxCell id="kvd4B9m_ok-2z7ZeC6i3-4" value="2" style="shape=partialRectangle;html=1;whiteSpace=wrap;connectable=0;overflow=hidden;fillColor=#f8cecc;top=0;left=0;bottom=0;right=0;strokeColor=#b85450;" vertex="1" parent="kvd4B9m_ok-2z7ZeC6i3-2">
          <mxGeometry x="90" width="30" height="40" as="geometry" />
        </mxCell>
        <mxCell id="kvd4B9m_ok-2z7ZeC6i3-5" value="3" style="shape=partialRectangle;html=1;whiteSpace=wrap;connectable=0;overflow=hidden;fillColor=#e1d5e7;top=0;left=0;bottom=0;right=0;strokeColor=#9673a6;" vertex="1" parent="kvd4B9m_ok-2z7ZeC6i3-2">
          <mxGeometry x="120" width="30" height="40" as="geometry" />
        </mxCell>
        <mxCell id="kvd4B9m_ok-2z7ZeC6i3-6" value="3" style="shape=partialRectangle;html=1;whiteSpace=wrap;connectable=0;overflow=hidden;fillColor=#e1d5e7;top=0;left=0;bottom=0;right=0;strokeColor=#9673a6;" vertex="1" parent="kvd4B9m_ok-2z7ZeC6i3-2">
          <mxGeometry x="150" width="90" height="40" as="geometry" />
        </mxCell>
        <mxCell id="kvd4B9m_ok-2z7ZeC6i3-7" value="1" style="shape=partialRectangle;html=1;whiteSpace=wrap;connectable=0;overflow=hidden;fillColor=#dae8fc;top=0;left=0;bottom=0;right=0;strokeColor=#6c8ebf;" vertex="1" parent="kvd4B9m_ok-2z7ZeC6i3-2">
          <mxGeometry x="240" width="60" height="40" as="geometry" />
        </mxCell>
        <mxCell id="kvd4B9m_ok-2z7ZeC6i3-8" value="4" style="shape=partialRectangle;html=1;whiteSpace=wrap;connectable=0;overflow=hidden;fillColor=#fff2cc;top=0;left=0;bottom=0;right=0;strokeColor=#d6b656;" vertex="1" parent="kvd4B9m_ok-2z7ZeC6i3-2">
          <mxGeometry x="300" width="50" height="40" as="geometry" />
        </mxCell>
        <mxCell id="kvd4B9m_ok-2z7ZeC6i3-9" value="2" style="shape=partialRectangle;html=1;whiteSpace=wrap;connectable=0;overflow=hidden;fillColor=#f8cecc;top=0;left=0;bottom=0;right=0;strokeColor=#b85450;" vertex="1" parent="kvd4B9m_ok-2z7ZeC6i3-2">
          <mxGeometry x="350" width="30" height="40" as="geometry" />
        </mxCell>
        <mxCell id="kvd4B9m_ok-2z7ZeC6i3-10" value="3" style="shape=partialRectangle;html=1;whiteSpace=wrap;connectable=0;overflow=hidden;fillColor=#e1d5e7;top=0;left=0;bottom=0;right=0;strokeColor=#9673a6;" vertex="1" parent="kvd4B9m_ok-2z7ZeC6i3-2">
          <mxGeometry x="380" width="60" height="40" as="geometry" />
        </mxCell>
        <mxCell id="kvd4B9m_ok-2z7ZeC6i3-11" value="4" style="shape=partialRectangle;html=1;whiteSpace=wrap;connectable=0;overflow=hidden;fillColor=#fff2cc;top=0;left=0;bottom=0;right=0;strokeColor=#d6b656;" vertex="1" parent="kvd4B9m_ok-2z7ZeC6i3-2">
          <mxGeometry x="440" width="80" height="40" as="geometry" />
        </mxCell>
        <mxCell id="kvd4B9m_ok-2z7ZeC6i3-12" value="4" style="shape=partialRectangle;html=1;whiteSpace=wrap;connectable=0;overflow=hidden;fillColor=#fff2cc;top=0;left=0;bottom=0;right=0;strokeColor=#d6b656;" vertex="1" parent="kvd4B9m_ok-2z7ZeC6i3-2">
          <mxGeometry x="520" width="80" height="40" as="geometry" />
        </mxCell>
      </root>
    </mxGraphModel>
  </diagram>
</mxfile>
